<?xml version="1.0" encoding="UTF-8" standalone="no"?>
<!-- This is a Stata 18.0 generated SVG file (http://www.stata.com) -->

<svg version="1.1" width="7.500in" height="4.500in" viewBox="0 0 5400 3240" xmlns="http://www.w3.org/2000/svg" xmlns:xlink="http://www.w3.org/1999/xlink">
	<desc>Stata Graph - Graph</desc>
	<rect x="0" y="0" width="5400" height="3240" style="fill:#FFFFFF;stroke:none"/>
	<rect x="0.00" y="0.00" width="5400.00" height="3240.00" style="fill:#FFFFFF"/>
	<rect x="3.24" y="3.24" width="5393.52" height="3233.52" style="fill:none;stroke:#FFFFFF;stroke-width:6.48"/>
	<rect x="557.89" y="113.40" width="2815.59" height="2653.26" style="fill:#FFFFFF"/>
	<rect x="561.13" y="116.64" width="2809.11" height="2646.78" style="fill:none;stroke:#FFFFFF;stroke-width:6.48"/>
	<line x1="557.89" y1="2766.66" x2="622.69" y2="2766.66" style="stroke:#F0F0F0;stroke-width:9.72"/>
	<line x1="655.09" y1="2766.66" x2="719.89" y2="2766.66" style="stroke:#F0F0F0;stroke-width:9.72"/>
	<line x1="752.29" y1="2766.66" x2="817.09" y2="2766.66" style="stroke:#F0F0F0;stroke-width:9.72"/>
	<line x1="849.49" y1="2766.66" x2="914.29" y2="2766.66" style="stroke:#F0F0F0;stroke-width:9.72"/>
	<line x1="946.69" y1="2766.66" x2="1011.49" y2="2766.66" style="stroke:#F0F0F0;stroke-width:9.72"/>
	<line x1="1043.89" y1="2766.66" x2="1108.69" y2="2766.66" style="stroke:#F0F0F0;stroke-width:9.72"/>
	<line x1="1141.09" y1="2766.66" x2="1205.89" y2="2766.66" style="stroke:#F0F0F0;stroke-width:9.72"/>
	<line x1="1238.29" y1="2766.66" x2="1303.09" y2="2766.66" style="stroke:#F0F0F0;stroke-width:9.72"/>
	<line x1="1335.49" y1="2766.66" x2="1400.29" y2="2766.66" style="stroke:#F0F0F0;stroke-width:9.72"/>
	<line x1="1432.69" y1="2766.66" x2="1497.49" y2="2766.66" style="stroke:#F0F0F0;stroke-width:9.72"/>
	<line x1="1529.89" y1="2766.66" x2="1594.69" y2="2766.66" style="stroke:#F0F0F0;stroke-width:9.72"/>
	<line x1="1627.09" y1="2766.66" x2="1691.89" y2="2766.66" style="stroke:#F0F0F0;stroke-width:9.72"/>
	<line x1="1724.29" y1="2766.66" x2="1789.09" y2="2766.66" style="stroke:#F0F0F0;stroke-width:9.72"/>
	<line x1="1821.49" y1="2766.66" x2="1886.29" y2="2766.66" style="stroke:#F0F0F0;stroke-width:9.72"/>
	<line x1="1918.69" y1="2766.66" x2="1983.49" y2="2766.66" style="stroke:#F0F0F0;stroke-width:9.72"/>
	<line x1="2015.89" y1="2766.66" x2="2080.69" y2="2766.66" style="stroke:#F0F0F0;stroke-width:9.72"/>
	<line x1="2113.09" y1="2766.66" x2="2177.89" y2="2766.66" style="stroke:#F0F0F0;stroke-width:9.72"/>
	<line x1="2210.29" y1="2766.66" x2="2275.09" y2="2766.66" style="stroke:#F0F0F0;stroke-width:9.72"/>
	<line x1="2307.49" y1="2766.66" x2="2372.29" y2="2766.66" style="stroke:#F0F0F0;stroke-width:9.72"/>
	<line x1="2404.69" y1="2766.66" x2="2469.49" y2="2766.66" style="stroke:#F0F0F0;stroke-width:9.72"/>
	<line x1="2501.89" y1="2766.66" x2="2566.69" y2="2766.66" style="stroke:#F0F0F0;stroke-width:9.72"/>
	<line x1="2599.09" y1="2766.66" x2="2663.89" y2="2766.66" style="stroke:#F0F0F0;stroke-width:9.72"/>
	<line x1="2696.29" y1="2766.66" x2="2761.09" y2="2766.66" style="stroke:#F0F0F0;stroke-width:9.72"/>
	<line x1="2793.49" y1="2766.66" x2="2858.29" y2="2766.66" style="stroke:#F0F0F0;stroke-width:9.72"/>
	<line x1="2890.69" y1="2766.66" x2="2955.49" y2="2766.66" style="stroke:#F0F0F0;stroke-width:9.72"/>
	<line x1="2987.89" y1="2766.66" x2="3052.69" y2="2766.66" style="stroke:#F0F0F0;stroke-width:9.72"/>
	<line x1="3085.09" y1="2766.66" x2="3149.89" y2="2766.66" style="stroke:#F0F0F0;stroke-width:9.72"/>
	<line x1="3182.29" y1="2766.66" x2="3247.09" y2="2766.66" style="stroke:#F0F0F0;stroke-width:9.72"/>
	<line x1="3279.49" y1="2766.66" x2="3344.29" y2="2766.66" style="stroke:#F0F0F0;stroke-width:9.72"/>
	<line x1="557.89" y1="2133.51" x2="622.69" y2="2133.51" style="stroke:#F0F0F0;stroke-width:9.72"/>
	<line x1="655.09" y1="2133.51" x2="719.89" y2="2133.51" style="stroke:#F0F0F0;stroke-width:9.72"/>
	<line x1="752.29" y1="2133.51" x2="817.09" y2="2133.51" style="stroke:#F0F0F0;stroke-width:9.72"/>
	<line x1="849.49" y1="2133.51" x2="914.29" y2="2133.51" style="stroke:#F0F0F0;stroke-width:9.72"/>
	<line x1="946.69" y1="2133.51" x2="1011.49" y2="2133.51" style="stroke:#F0F0F0;stroke-width:9.72"/>
	<line x1="1043.89" y1="2133.51" x2="1108.69" y2="2133.51" style="stroke:#F0F0F0;stroke-width:9.72"/>
	<line x1="1141.09" y1="2133.51" x2="1205.89" y2="2133.51" style="stroke:#F0F0F0;stroke-width:9.72"/>
	<line x1="1238.29" y1="2133.51" x2="1303.09" y2="2133.51" style="stroke:#F0F0F0;stroke-width:9.72"/>
	<line x1="1335.49" y1="2133.51" x2="1400.29" y2="2133.51" style="stroke:#F0F0F0;stroke-width:9.72"/>
	<line x1="1432.69" y1="2133.51" x2="1497.49" y2="2133.51" style="stroke:#F0F0F0;stroke-width:9.72"/>
	<line x1="1529.89" y1="2133.51" x2="1594.69" y2="2133.51" style="stroke:#F0F0F0;stroke-width:9.72"/>
	<line x1="1627.09" y1="2133.51" x2="1691.89" y2="2133.51" style="stroke:#F0F0F0;stroke-width:9.72"/>
	<line x1="1724.29" y1="2133.51" x2="1789.09" y2="2133.51" style="stroke:#F0F0F0;stroke-width:9.72"/>
	<line x1="1821.49" y1="2133.51" x2="1886.29" y2="2133.51" style="stroke:#F0F0F0;stroke-width:9.72"/>
	<line x1="1918.69" y1="2133.51" x2="1983.49" y2="2133.51" style="stroke:#F0F0F0;stroke-width:9.72"/>
	<line x1="2015.89" y1="2133.51" x2="2080.69" y2="2133.51" style="stroke:#F0F0F0;stroke-width:9.72"/>
	<line x1="2113.09" y1="2133.51" x2="2177.89" y2="2133.51" style="stroke:#F0F0F0;stroke-width:9.72"/>
	<line x1="2210.29" y1="2133.51" x2="2275.09" y2="2133.51" style="stroke:#F0F0F0;stroke-width:9.72"/>
	<line x1="2307.49" y1="2133.51" x2="2372.29" y2="2133.51" style="stroke:#F0F0F0;stroke-width:9.72"/>
	<line x1="2404.69" y1="2133.51" x2="2469.49" y2="2133.51" style="stroke:#F0F0F0;stroke-width:9.72"/>
	<line x1="2501.89" y1="2133.51" x2="2566.69" y2="2133.51" style="stroke:#F0F0F0;stroke-width:9.72"/>
	<line x1="2599.09" y1="2133.51" x2="2663.89" y2="2133.51" style="stroke:#F0F0F0;stroke-width:9.72"/>
	<line x1="2696.29" y1="2133.51" x2="2761.09" y2="2133.51" style="stroke:#F0F0F0;stroke-width:9.72"/>
	<line x1="2793.49" y1="2133.51" x2="2858.29" y2="2133.51" style="stroke:#F0F0F0;stroke-width:9.72"/>
	<line x1="2890.69" y1="2133.51" x2="2955.49" y2="2133.51" style="stroke:#F0F0F0;stroke-width:9.72"/>
	<line x1="2987.89" y1="2133.51" x2="3052.69" y2="2133.51" style="stroke:#F0F0F0;stroke-width:9.72"/>
	<line x1="3085.09" y1="2133.51" x2="3149.89" y2="2133.51" style="stroke:#F0F0F0;stroke-width:9.72"/>
	<line x1="3182.29" y1="2133.51" x2="3247.09" y2="2133.51" style="stroke:#F0F0F0;stroke-width:9.72"/>
	<line x1="3279.49" y1="2133.51" x2="3344.29" y2="2133.51" style="stroke:#F0F0F0;stroke-width:9.72"/>
	<line x1="557.89" y1="1500.36" x2="622.69" y2="1500.36" style="stroke:#F0F0F0;stroke-width:9.72"/>
	<line x1="655.09" y1="1500.36" x2="719.89" y2="1500.36" style="stroke:#F0F0F0;stroke-width:9.72"/>
	<line x1="752.29" y1="1500.36" x2="817.09" y2="1500.36" style="stroke:#F0F0F0;stroke-width:9.72"/>
	<line x1="849.49" y1="1500.36" x2="914.29" y2="1500.36" style="stroke:#F0F0F0;stroke-width:9.72"/>
	<line x1="946.69" y1="1500.36" x2="1011.49" y2="1500.36" style="stroke:#F0F0F0;stroke-width:9.72"/>
	<line x1="1043.89" y1="1500.36" x2="1108.69" y2="1500.36" style="stroke:#F0F0F0;stroke-width:9.72"/>
	<line x1="1141.09" y1="1500.36" x2="1205.89" y2="1500.36" style="stroke:#F0F0F0;stroke-width:9.72"/>
	<line x1="1238.29" y1="1500.36" x2="1303.09" y2="1500.36" style="stroke:#F0F0F0;stroke-width:9.72"/>
	<line x1="1335.49" y1="1500.36" x2="1400.29" y2="1500.36" style="stroke:#F0F0F0;stroke-width:9.72"/>
	<line x1="1432.69" y1="1500.36" x2="1497.49" y2="1500.36" style="stroke:#F0F0F0;stroke-width:9.72"/>
	<line x1="1529.89" y1="1500.36" x2="1594.69" y2="1500.36" style="stroke:#F0F0F0;stroke-width:9.72"/>
	<line x1="1627.09" y1="1500.36" x2="1691.89" y2="1500.36" style="stroke:#F0F0F0;stroke-width:9.72"/>
	<line x1="1724.29" y1="1500.36" x2="1789.09" y2="1500.36" style="stroke:#F0F0F0;stroke-width:9.72"/>
	<line x1="1821.49" y1="1500.36" x2="1886.29" y2="1500.36" style="stroke:#F0F0F0;stroke-width:9.72"/>
	<line x1="1918.69" y1="1500.36" x2="1983.49" y2="1500.36" style="stroke:#F0F0F0;stroke-width:9.72"/>
	<line x1="2015.89" y1="1500.36" x2="2080.69" y2="1500.36" style="stroke:#F0F0F0;stroke-width:9.72"/>
	<line x1="2113.09" y1="1500.36" x2="2177.89" y2="1500.36" style="stroke:#F0F0F0;stroke-width:9.72"/>
	<line x1="2210.29" y1="1500.36" x2="2275.09" y2="1500.36" style="stroke:#F0F0F0;stroke-width:9.72"/>
	<line x1="2307.49" y1="1500.36" x2="2372.29" y2="1500.36" style="stroke:#F0F0F0;stroke-width:9.72"/>
	<line x1="2404.69" y1="1500.36" x2="2469.49" y2="1500.36" style="stroke:#F0F0F0;stroke-width:9.72"/>
	<line x1="2501.89" y1="1500.36" x2="2566.69" y2="1500.36" style="stroke:#F0F0F0;stroke-width:9.72"/>
	<line x1="2599.09" y1="1500.36" x2="2663.89" y2="1500.36" style="stroke:#F0F0F0;stroke-width:9.72"/>
	<line x1="2696.29" y1="1500.36" x2="2761.09" y2="1500.36" style="stroke:#F0F0F0;stroke-width:9.72"/>
	<line x1="2793.49" y1="1500.36" x2="2858.29" y2="1500.36" style="stroke:#F0F0F0;stroke-width:9.72"/>
	<line x1="2890.69" y1="1500.36" x2="2955.49" y2="1500.36" style="stroke:#F0F0F0;stroke-width:9.72"/>
	<line x1="2987.89" y1="1500.36" x2="3052.69" y2="1500.36" style="stroke:#F0F0F0;stroke-width:9.72"/>
	<line x1="3085.09" y1="1500.36" x2="3149.89" y2="1500.36" style="stroke:#F0F0F0;stroke-width:9.72"/>
	<line x1="3182.29" y1="1500.36" x2="3247.09" y2="1500.36" style="stroke:#F0F0F0;stroke-width:9.72"/>
	<line x1="3279.49" y1="1500.36" x2="3344.29" y2="1500.36" style="stroke:#F0F0F0;stroke-width:9.72"/>
	<line x1="557.89" y1="867.21" x2="622.69" y2="867.21" style="stroke:#F0F0F0;stroke-width:9.72"/>
	<line x1="655.09" y1="867.21" x2="719.89" y2="867.21" style="stroke:#F0F0F0;stroke-width:9.72"/>
	<line x1="752.29" y1="867.21" x2="817.09" y2="867.21" style="stroke:#F0F0F0;stroke-width:9.72"/>
	<line x1="849.49" y1="867.21" x2="914.29" y2="867.21" style="stroke:#F0F0F0;stroke-width:9.72"/>
	<line x1="946.69" y1="867.21" x2="1011.49" y2="867.21" style="stroke:#F0F0F0;stroke-width:9.72"/>
	<line x1="1043.89" y1="867.21" x2="1108.69" y2="867.21" style="stroke:#F0F0F0;stroke-width:9.72"/>
	<line x1="1141.09" y1="867.21" x2="1205.89" y2="867.21" style="stroke:#F0F0F0;stroke-width:9.72"/>
	<line x1="1238.29" y1="867.21" x2="1303.09" y2="867.21" style="stroke:#F0F0F0;stroke-width:9.72"/>
	<line x1="1335.49" y1="867.21" x2="1400.29" y2="867.21" style="stroke:#F0F0F0;stroke-width:9.72"/>
	<line x1="1432.69" y1="867.21" x2="1497.49" y2="867.21" style="stroke:#F0F0F0;stroke-width:9.72"/>
	<line x1="1529.89" y1="867.21" x2="1594.69" y2="867.21" style="stroke:#F0F0F0;stroke-width:9.72"/>
	<line x1="1627.09" y1="867.21" x2="1691.89" y2="867.21" style="stroke:#F0F0F0;stroke-width:9.72"/>
	<line x1="1724.29" y1="867.21" x2="1789.09" y2="867.21" style="stroke:#F0F0F0;stroke-width:9.72"/>
	<line x1="1821.49" y1="867.21" x2="1886.29" y2="867.21" style="stroke:#F0F0F0;stroke-width:9.72"/>
	<line x1="1918.69" y1="867.21" x2="1983.49" y2="867.21" style="stroke:#F0F0F0;stroke-width:9.72"/>
	<line x1="2015.89" y1="867.21" x2="2080.69" y2="867.21" style="stroke:#F0F0F0;stroke-width:9.72"/>
	<line x1="2113.09" y1="867.21" x2="2177.89" y2="867.21" style="stroke:#F0F0F0;stroke-width:9.72"/>
	<line x1="2210.29" y1="867.21" x2="2275.09" y2="867.21" style="stroke:#F0F0F0;stroke-width:9.72"/>
	<line x1="2307.49" y1="867.21" x2="2372.29" y2="867.21" style="stroke:#F0F0F0;stroke-width:9.72"/>
	<line x1="2404.69" y1="867.21" x2="2469.49" y2="867.21" style="stroke:#F0F0F0;stroke-width:9.72"/>
	<line x1="2501.89" y1="867.21" x2="2566.69" y2="867.21" style="stroke:#F0F0F0;stroke-width:9.72"/>
	<line x1="2599.09" y1="867.21" x2="2663.89" y2="867.21" style="stroke:#F0F0F0;stroke-width:9.72"/>
	<line x1="2696.29" y1="867.21" x2="2761.09" y2="867.21" style="stroke:#F0F0F0;stroke-width:9.72"/>
	<line x1="2793.49" y1="867.21" x2="2858.29" y2="867.21" style="stroke:#F0F0F0;stroke-width:9.72"/>
	<line x1="2890.69" y1="867.21" x2="2955.49" y2="867.21" style="stroke:#F0F0F0;stroke-width:9.72"/>
	<line x1="2987.89" y1="867.21" x2="3052.69" y2="867.21" style="stroke:#F0F0F0;stroke-width:9.72"/>
	<line x1="3085.09" y1="867.21" x2="3149.89" y2="867.21" style="stroke:#F0F0F0;stroke-width:9.72"/>
	<line x1="3182.29" y1="867.21" x2="3247.09" y2="867.21" style="stroke:#F0F0F0;stroke-width:9.72"/>
	<line x1="3279.49" y1="867.21" x2="3344.29" y2="867.21" style="stroke:#F0F0F0;stroke-width:9.72"/>
	<line x1="557.89" y1="234.06" x2="622.69" y2="234.06" style="stroke:#F0F0F0;stroke-width:9.72"/>
	<line x1="655.09" y1="234.06" x2="719.89" y2="234.06" style="stroke:#F0F0F0;stroke-width:9.72"/>
	<line x1="752.29" y1="234.06" x2="817.09" y2="234.06" style="stroke:#F0F0F0;stroke-width:9.72"/>
	<line x1="849.49" y1="234.06" x2="914.29" y2="234.06" style="stroke:#F0F0F0;stroke-width:9.72"/>
	<line x1="946.69" y1="234.06" x2="1011.49" y2="234.06" style="stroke:#F0F0F0;stroke-width:9.72"/>
	<line x1="1043.89" y1="234.06" x2="1108.69" y2="234.06" style="stroke:#F0F0F0;stroke-width:9.72"/>
	<line x1="1141.09" y1="234.06" x2="1205.89" y2="234.06" style="stroke:#F0F0F0;stroke-width:9.72"/>
	<line x1="1238.29" y1="234.06" x2="1303.09" y2="234.06" style="stroke:#F0F0F0;stroke-width:9.72"/>
	<line x1="1335.49" y1="234.06" x2="1400.29" y2="234.06" style="stroke:#F0F0F0;stroke-width:9.72"/>
	<line x1="1432.69" y1="234.06" x2="1497.49" y2="234.06" style="stroke:#F0F0F0;stroke-width:9.72"/>
	<line x1="1529.89" y1="234.06" x2="1594.69" y2="234.06" style="stroke:#F0F0F0;stroke-width:9.72"/>
	<line x1="1627.09" y1="234.06" x2="1691.89" y2="234.06" style="stroke:#F0F0F0;stroke-width:9.72"/>
	<line x1="1724.29" y1="234.06" x2="1789.09" y2="234.06" style="stroke:#F0F0F0;stroke-width:9.72"/>
	<line x1="1821.49" y1="234.06" x2="1886.29" y2="234.06" style="stroke:#F0F0F0;stroke-width:9.72"/>
	<line x1="1918.69" y1="234.06" x2="1983.49" y2="234.06" style="stroke:#F0F0F0;stroke-width:9.72"/>
	<line x1="2015.89" y1="234.06" x2="2080.69" y2="234.06" style="stroke:#F0F0F0;stroke-width:9.72"/>
	<line x1="2113.09" y1="234.06" x2="2177.89" y2="234.06" style="stroke:#F0F0F0;stroke-width:9.72"/>
	<line x1="2210.29" y1="234.06" x2="2275.09" y2="234.06" style="stroke:#F0F0F0;stroke-width:9.72"/>
	<line x1="2307.49" y1="234.06" x2="2372.29" y2="234.06" style="stroke:#F0F0F0;stroke-width:9.72"/>
	<line x1="2404.69" y1="234.06" x2="2469.49" y2="234.06" style="stroke:#F0F0F0;stroke-width:9.72"/>
	<line x1="2501.89" y1="234.06" x2="2566.69" y2="234.06" style="stroke:#F0F0F0;stroke-width:9.72"/>
	<line x1="2599.09" y1="234.06" x2="2663.89" y2="234.06" style="stroke:#F0F0F0;stroke-width:9.72"/>
	<line x1="2696.29" y1="234.06" x2="2761.09" y2="234.06" style="stroke:#F0F0F0;stroke-width:9.72"/>
	<line x1="2793.49" y1="234.06" x2="2858.29" y2="234.06" style="stroke:#F0F0F0;stroke-width:9.72"/>
	<line x1="2890.69" y1="234.06" x2="2955.49" y2="234.06" style="stroke:#F0F0F0;stroke-width:9.72"/>
	<line x1="2987.89" y1="234.06" x2="3052.69" y2="234.06" style="stroke:#F0F0F0;stroke-width:9.72"/>
	<line x1="3085.09" y1="234.06" x2="3149.89" y2="234.06" style="stroke:#F0F0F0;stroke-width:9.72"/>
	<line x1="3182.29" y1="234.06" x2="3247.09" y2="234.06" style="stroke:#F0F0F0;stroke-width:9.72"/>
	<line x1="3279.49" y1="234.06" x2="3344.29" y2="234.06" style="stroke:#F0F0F0;stroke-width:9.72"/>
	<line x1="903.32" y1="2766.66" x2="903.32" y2="2701.86" style="stroke:#F0F0F0;stroke-width:9.72"/>
	<line x1="903.32" y1="2669.46" x2="903.32" y2="2604.66" style="stroke:#F0F0F0;stroke-width:9.72"/>
	<line x1="903.32" y1="2572.26" x2="903.32" y2="2507.46" style="stroke:#F0F0F0;stroke-width:9.72"/>
	<line x1="903.32" y1="2475.06" x2="903.32" y2="2410.26" style="stroke:#F0F0F0;stroke-width:9.72"/>
	<line x1="903.32" y1="2377.86" x2="903.32" y2="2313.06" style="stroke:#F0F0F0;stroke-width:9.72"/>
	<line x1="903.32" y1="2280.66" x2="903.32" y2="2215.86" style="stroke:#F0F0F0;stroke-width:9.72"/>
	<line x1="903.32" y1="2183.46" x2="903.32" y2="2118.66" style="stroke:#F0F0F0;stroke-width:9.72"/>
	<line x1="903.32" y1="2086.26" x2="903.32" y2="2021.46" style="stroke:#F0F0F0;stroke-width:9.72"/>
	<line x1="903.32" y1="1989.06" x2="903.32" y2="1924.26" style="stroke:#F0F0F0;stroke-width:9.72"/>
	<line x1="903.32" y1="1891.86" x2="903.32" y2="1827.06" style="stroke:#F0F0F0;stroke-width:9.72"/>
	<line x1="903.32" y1="1794.66" x2="903.32" y2="1729.86" style="stroke:#F0F0F0;stroke-width:9.72"/>
	<line x1="903.32" y1="1697.46" x2="903.32" y2="1632.66" style="stroke:#F0F0F0;stroke-width:9.72"/>
	<line x1="903.32" y1="1600.26" x2="903.32" y2="1535.46" style="stroke:#F0F0F0;stroke-width:9.72"/>
	<line x1="903.32" y1="1503.06" x2="903.32" y2="1438.26" style="stroke:#F0F0F0;stroke-width:9.72"/>
	<line x1="903.32" y1="1405.86" x2="903.32" y2="1341.06" style="stroke:#F0F0F0;stroke-width:9.72"/>
	<line x1="903.32" y1="1308.66" x2="903.32" y2="1243.86" style="stroke:#F0F0F0;stroke-width:9.72"/>
	<line x1="903.32" y1="1211.46" x2="903.32" y2="1146.66" style="stroke:#F0F0F0;stroke-width:9.72"/>
	<line x1="903.32" y1="1114.26" x2="903.32" y2="1049.46" style="stroke:#F0F0F0;stroke-width:9.72"/>
	<line x1="903.32" y1="1017.06" x2="903.32" y2="952.26" style="stroke:#F0F0F0;stroke-width:9.72"/>
	<line x1="903.32" y1="919.86" x2="903.32" y2="855.06" style="stroke:#F0F0F0;stroke-width:9.72"/>
	<line x1="903.32" y1="822.66" x2="903.32" y2="757.86" style="stroke:#F0F0F0;stroke-width:9.72"/>
	<line x1="903.32" y1="725.46" x2="903.32" y2="660.66" style="stroke:#F0F0F0;stroke-width:9.72"/>
	<line x1="903.32" y1="628.26" x2="903.32" y2="563.46" style="stroke:#F0F0F0;stroke-width:9.72"/>
	<line x1="903.32" y1="531.06" x2="903.32" y2="466.26" style="stroke:#F0F0F0;stroke-width:9.72"/>
	<line x1="903.32" y1="433.86" x2="903.32" y2="369.06" style="stroke:#F0F0F0;stroke-width:9.72"/>
	<line x1="903.32" y1="336.66" x2="903.32" y2="271.86" style="stroke:#F0F0F0;stroke-width:9.72"/>
	<line x1="903.32" y1="239.46" x2="903.32" y2="174.66" style="stroke:#F0F0F0;stroke-width:9.72"/>
	<line x1="903.32" y1="142.26" x2="903.32" y2="113.40" style="stroke:#F0F0F0;stroke-width:9.72"/>
	<line x1="1585.58" y1="2766.66" x2="1585.58" y2="2701.86" style="stroke:#F0F0F0;stroke-width:9.72"/>
	<line x1="1585.58" y1="2669.46" x2="1585.58" y2="2604.66" style="stroke:#F0F0F0;stroke-width:9.72"/>
	<line x1="1585.58" y1="2572.26" x2="1585.58" y2="2507.46" style="stroke:#F0F0F0;stroke-width:9.72"/>
	<line x1="1585.58" y1="2475.06" x2="1585.58" y2="2410.26" style="stroke:#F0F0F0;stroke-width:9.72"/>
	<line x1="1585.58" y1="2377.86" x2="1585.58" y2="2313.06" style="stroke:#F0F0F0;stroke-width:9.72"/>
	<line x1="1585.58" y1="2280.66" x2="1585.58" y2="2215.86" style="stroke:#F0F0F0;stroke-width:9.72"/>
	<line x1="1585.58" y1="2183.46" x2="1585.58" y2="2118.66" style="stroke:#F0F0F0;stroke-width:9.72"/>
	<line x1="1585.58" y1="2086.26" x2="1585.58" y2="2021.46" style="stroke:#F0F0F0;stroke-width:9.72"/>
	<line x1="1585.58" y1="1989.06" x2="1585.58" y2="1924.26" style="stroke:#F0F0F0;stroke-width:9.72"/>
	<line x1="1585.58" y1="1891.86" x2="1585.58" y2="1827.06" style="stroke:#F0F0F0;stroke-width:9.72"/>
	<line x1="1585.58" y1="1794.66" x2="1585.58" y2="1729.86" style="stroke:#F0F0F0;stroke-width:9.72"/>
	<line x1="1585.58" y1="1697.46" x2="1585.58" y2="1632.66" style="stroke:#F0F0F0;stroke-width:9.72"/>
	<line x1="1585.58" y1="1600.26" x2="1585.58" y2="1535.46" style="stroke:#F0F0F0;stroke-width:9.72"/>
	<line x1="1585.58" y1="1503.06" x2="1585.58" y2="1438.26" style="stroke:#F0F0F0;stroke-width:9.72"/>
	<line x1="1585.58" y1="1405.86" x2="1585.58" y2="1341.06" style="stroke:#F0F0F0;stroke-width:9.72"/>
	<line x1="1585.58" y1="1308.66" x2="1585.58" y2="1243.86" style="stroke:#F0F0F0;stroke-width:9.72"/>
	<line x1="1585.58" y1="1211.46" x2="1585.58" y2="1146.66" style="stroke:#F0F0F0;stroke-width:9.72"/>
	<line x1="1585.58" y1="1114.26" x2="1585.58" y2="1049.46" style="stroke:#F0F0F0;stroke-width:9.72"/>
	<line x1="1585.58" y1="1017.06" x2="1585.58" y2="952.26" style="stroke:#F0F0F0;stroke-width:9.72"/>
	<line x1="1585.58" y1="919.86" x2="1585.58" y2="855.06" style="stroke:#F0F0F0;stroke-width:9.72"/>
	<line x1="1585.58" y1="822.66" x2="1585.58" y2="757.86" style="stroke:#F0F0F0;stroke-width:9.72"/>
	<line x1="1585.58" y1="725.46" x2="1585.58" y2="660.66" style="stroke:#F0F0F0;stroke-width:9.72"/>
	<line x1="1585.58" y1="628.26" x2="1585.58" y2="563.46" style="stroke:#F0F0F0;stroke-width:9.72"/>
	<line x1="1585.58" y1="531.06" x2="1585.58" y2="466.26" style="stroke:#F0F0F0;stroke-width:9.72"/>
	<line x1="1585.58" y1="433.86" x2="1585.58" y2="369.06" style="stroke:#F0F0F0;stroke-width:9.72"/>
	<line x1="1585.58" y1="336.66" x2="1585.58" y2="271.86" style="stroke:#F0F0F0;stroke-width:9.72"/>
	<line x1="1585.58" y1="239.46" x2="1585.58" y2="174.66" style="stroke:#F0F0F0;stroke-width:9.72"/>
	<line x1="1585.58" y1="142.26" x2="1585.58" y2="113.40" style="stroke:#F0F0F0;stroke-width:9.72"/>
	<line x1="2268.00" y1="2766.66" x2="2268.00" y2="2701.86" style="stroke:#F0F0F0;stroke-width:9.72"/>
	<line x1="2268.00" y1="2669.46" x2="2268.00" y2="2604.66" style="stroke:#F0F0F0;stroke-width:9.72"/>
	<line x1="2268.00" y1="2572.26" x2="2268.00" y2="2507.46" style="stroke:#F0F0F0;stroke-width:9.72"/>
	<line x1="2268.00" y1="2475.06" x2="2268.00" y2="2410.26" style="stroke:#F0F0F0;stroke-width:9.72"/>
	<line x1="2268.00" y1="2377.86" x2="2268.00" y2="2313.06" style="stroke:#F0F0F0;stroke-width:9.72"/>
	<line x1="2268.00" y1="2280.66" x2="2268.00" y2="2215.86" style="stroke:#F0F0F0;stroke-width:9.72"/>
	<line x1="2268.00" y1="2183.46" x2="2268.00" y2="2118.66" style="stroke:#F0F0F0;stroke-width:9.72"/>
	<line x1="2268.00" y1="2086.26" x2="2268.00" y2="2021.46" style="stroke:#F0F0F0;stroke-width:9.72"/>
	<line x1="2268.00" y1="1989.06" x2="2268.00" y2="1924.26" style="stroke:#F0F0F0;stroke-width:9.72"/>
	<line x1="2268.00" y1="1891.86" x2="2268.00" y2="1827.06" style="stroke:#F0F0F0;stroke-width:9.72"/>
	<line x1="2268.00" y1="1794.66" x2="2268.00" y2="1729.86" style="stroke:#F0F0F0;stroke-width:9.72"/>
	<line x1="2268.00" y1="1697.46" x2="2268.00" y2="1632.66" style="stroke:#F0F0F0;stroke-width:9.72"/>
	<line x1="2268.00" y1="1600.26" x2="2268.00" y2="1535.46" style="stroke:#F0F0F0;stroke-width:9.72"/>
	<line x1="2268.00" y1="1503.06" x2="2268.00" y2="1438.26" style="stroke:#F0F0F0;stroke-width:9.72"/>
	<line x1="2268.00" y1="1405.86" x2="2268.00" y2="1341.06" style="stroke:#F0F0F0;stroke-width:9.72"/>
	<line x1="2268.00" y1="1308.66" x2="2268.00" y2="1243.86" style="stroke:#F0F0F0;stroke-width:9.72"/>
	<line x1="2268.00" y1="1211.46" x2="2268.00" y2="1146.66" style="stroke:#F0F0F0;stroke-width:9.72"/>
	<line x1="2268.00" y1="1114.26" x2="2268.00" y2="1049.46" style="stroke:#F0F0F0;stroke-width:9.72"/>
	<line x1="2268.00" y1="1017.06" x2="2268.00" y2="952.26" style="stroke:#F0F0F0;stroke-width:9.72"/>
	<line x1="2268.00" y1="919.86" x2="2268.00" y2="855.06" style="stroke:#F0F0F0;stroke-width:9.72"/>
	<line x1="2268.00" y1="822.66" x2="2268.00" y2="757.86" style="stroke:#F0F0F0;stroke-width:9.72"/>
	<line x1="2268.00" y1="725.46" x2="2268.00" y2="660.66" style="stroke:#F0F0F0;stroke-width:9.72"/>
	<line x1="2268.00" y1="628.26" x2="2268.00" y2="563.46" style="stroke:#F0F0F0;stroke-width:9.72"/>
	<line x1="2268.00" y1="531.06" x2="2268.00" y2="466.26" style="stroke:#F0F0F0;stroke-width:9.72"/>
	<line x1="2268.00" y1="433.86" x2="2268.00" y2="369.06" style="stroke:#F0F0F0;stroke-width:9.72"/>
	<line x1="2268.00" y1="336.66" x2="2268.00" y2="271.86" style="stroke:#F0F0F0;stroke-width:9.72"/>
	<line x1="2268.00" y1="239.46" x2="2268.00" y2="174.66" style="stroke:#F0F0F0;stroke-width:9.72"/>
	<line x1="2268.00" y1="142.26" x2="2268.00" y2="113.40" style="stroke:#F0F0F0;stroke-width:9.72"/>
	<line x1="2950.43" y1="2766.66" x2="2950.43" y2="2701.86" style="stroke:#F0F0F0;stroke-width:9.72"/>
	<line x1="2950.43" y1="2669.46" x2="2950.43" y2="2604.66" style="stroke:#F0F0F0;stroke-width:9.72"/>
	<line x1="2950.43" y1="2572.26" x2="2950.43" y2="2507.46" style="stroke:#F0F0F0;stroke-width:9.72"/>
	<line x1="2950.43" y1="2475.06" x2="2950.43" y2="2410.26" style="stroke:#F0F0F0;stroke-width:9.72"/>
	<line x1="2950.43" y1="2377.86" x2="2950.43" y2="2313.06" style="stroke:#F0F0F0;stroke-width:9.72"/>
	<line x1="2950.43" y1="2280.66" x2="2950.43" y2="2215.86" style="stroke:#F0F0F0;stroke-width:9.72"/>
	<line x1="2950.43" y1="2183.46" x2="2950.43" y2="2118.66" style="stroke:#F0F0F0;stroke-width:9.72"/>
	<line x1="2950.43" y1="2086.26" x2="2950.43" y2="2021.46" style="stroke:#F0F0F0;stroke-width:9.72"/>
	<line x1="2950.43" y1="1989.06" x2="2950.43" y2="1924.26" style="stroke:#F0F0F0;stroke-width:9.72"/>
	<line x1="2950.43" y1="1891.86" x2="2950.43" y2="1827.06" style="stroke:#F0F0F0;stroke-width:9.72"/>
	<line x1="2950.43" y1="1794.66" x2="2950.43" y2="1729.86" style="stroke:#F0F0F0;stroke-width:9.72"/>
	<line x1="2950.43" y1="1697.46" x2="2950.43" y2="1632.66" style="stroke:#F0F0F0;stroke-width:9.72"/>
	<line x1="2950.43" y1="1600.26" x2="2950.43" y2="1535.46" style="stroke:#F0F0F0;stroke-width:9.72"/>
	<line x1="2950.43" y1="1503.06" x2="2950.43" y2="1438.26" style="stroke:#F0F0F0;stroke-width:9.72"/>
	<line x1="2950.43" y1="1405.86" x2="2950.43" y2="1341.06" style="stroke:#F0F0F0;stroke-width:9.72"/>
	<line x1="2950.43" y1="1308.66" x2="2950.43" y2="1243.86" style="stroke:#F0F0F0;stroke-width:9.72"/>
	<line x1="2950.43" y1="1211.46" x2="2950.43" y2="1146.66" style="stroke:#F0F0F0;stroke-width:9.72"/>
	<line x1="2950.43" y1="1114.26" x2="2950.43" y2="1049.46" style="stroke:#F0F0F0;stroke-width:9.72"/>
	<line x1="2950.43" y1="1017.06" x2="2950.43" y2="952.26" style="stroke:#F0F0F0;stroke-width:9.72"/>
	<line x1="2950.43" y1="919.86" x2="2950.43" y2="855.06" style="stroke:#F0F0F0;stroke-width:9.72"/>
	<line x1="2950.43" y1="822.66" x2="2950.43" y2="757.86" style="stroke:#F0F0F0;stroke-width:9.72"/>
	<line x1="2950.43" y1="725.46" x2="2950.43" y2="660.66" style="stroke:#F0F0F0;stroke-width:9.72"/>
	<line x1="2950.43" y1="628.26" x2="2950.43" y2="563.46" style="stroke:#F0F0F0;stroke-width:9.72"/>
	<line x1="2950.43" y1="531.06" x2="2950.43" y2="466.26" style="stroke:#F0F0F0;stroke-width:9.72"/>
	<line x1="2950.43" y1="433.86" x2="2950.43" y2="369.06" style="stroke:#F0F0F0;stroke-width:9.72"/>
	<line x1="2950.43" y1="336.66" x2="2950.43" y2="271.86" style="stroke:#F0F0F0;stroke-width:9.72"/>
	<line x1="2950.43" y1="239.46" x2="2950.43" y2="174.66" style="stroke:#F0F0F0;stroke-width:9.72"/>
	<line x1="2950.43" y1="142.26" x2="2950.43" y2="113.40" style="stroke:#F0F0F0;stroke-width:9.72"/>
	<rect x="852.36" y="2443.84" width="446.17" height="322.82" style="fill:#FF8C19;fill-opacity:0.40"/>
	<rect x="854.79" y="2446.27" width="441.31" height="317.96" style="fill:none;stroke:#5FAAFF;stroke-width:4.86"/>
	<rect x="1298.53" y="2121.19" width="446.17" height="645.47" style="fill:#FF8C19;fill-opacity:0.40"/>
	<rect x="1300.96" y="2123.62" width="441.31" height="640.61" style="fill:none;stroke:#5FAAFF;stroke-width:4.86"/>
	<rect x="1744.71" y="184.61" width="446.17" height="2582.04" style="fill:#FF8C19;fill-opacity:0.40"/>
	<rect x="1747.14" y="187.04" width="441.31" height="2577.18" style="fill:none;stroke:#5FAAFF;stroke-width:4.86"/>
	<rect x="2190.88" y="2121.19" width="446.18" height="645.47" style="fill:#FF8C19;fill-opacity:0.40"/>
	<rect x="2193.31" y="2123.62" width="441.32" height="640.61" style="fill:none;stroke:#5FAAFF;stroke-width:4.86"/>
	<rect x="2637.06" y="2121.19" width="446.34" height="645.47" style="fill:#FF8C19;fill-opacity:0.40"/>
	<rect x="2639.49" y="2123.62" width="441.48" height="640.61" style="fill:none;stroke:#5FAAFF;stroke-width:4.86"/>
	<path d=" M852.19 2679.58 L859.61 2676.21 L867.21 2672.66 L874.63 2669.12 L882.06 2665.58 L889.48 2661.69 L896.91 2657.81 L904.50 2653.76 L911.93 2649.71 L919.35 2645.49 L926.78 2641.11 L934.37 2636.55 L941.79 2631.99 L949.22 2627.10 L956.64 2622.21 L964.07 2617.31 L971.66 2612.08 L979.09 2606.68 L986.51 2601.28 L993.94 2595.71 L1001.53 2589.98 L1008.96 2584.07 L1016.38 2577.99 L1023.81 2571.75 L1031.23 2565.34 L1038.83 2558.93 L1046.25 2552.18 L1053.68 2545.26 L1061.10 2538.34 L1068.53 2531.08 L1076.12 2523.82 L1083.54 2516.23 L1090.97 2508.47 L1098.39 2500.71 L1105.99 2492.61 L1113.41 2484.34 L1120.84 2476.07 L1128.26 2467.46 L1135.69 2458.69 L1143.28 2449.74 L1150.71 2440.63 L1158.13 2431.35 L1165.56 2421.73 L1172.98 2412.11 L1180.58 2402.16 L1188.00 2392.20 L1195.43 2381.91 L1202.85 2371.44 L1210.44 2360.98 L1217.87 2350.18 L1225.29 2339.21 L1232.72 2327.91 L1240.14 2316.60 L1247.74 2305.13 L1255.16 2293.31 L1262.59 2281.50 L1270.01 2269.35 L1277.61 2257.03 L1285.03 2244.54 L1292.46 2232.06 L1299.88 2219.23 L1307.31 2206.24 L1314.90 2193.07 L1322.33 2179.74 L1329.75 2166.24 L1337.18 2152.57 L1344.60 2138.74 L1352.19 2124.73 L1359.62 2110.73 L1367.04 2096.38 L1374.47 2082.04 L1382.06 2067.36 L1389.49 2052.68 L1396.91 2037.83 L1404.34 2022.81 L1411.76 2007.62 L1419.36 1992.43 L1426.78 1977.08 L1434.21 1961.55 L1441.63 1946.03 L1449.23 1930.33 L1456.65 1914.47 L1464.08 1898.61 L1471.50 1882.58 L1478.93 1866.54 L1486.52 1850.34 L1493.94 1834.14 L1501.37 1817.94 L1508.79 1801.58 L1516.22 1785.21 L1523.81 1768.84 L1531.24 1752.30 L1538.66 1735.93 L1546.09 1719.39 L1553.68 1702.86 L1561.11 1686.32 L1568.53 1669.78 L1575.96 1653.24 L1583.38 1636.88 L1590.98 1620.34 L1598.40 1603.97 L1605.83 1587.60 L1613.25 1571.23 L1620.84 1554.86 L1628.27 1538.66 L1635.69 1522.63 L1643.12 1506.60 L1650.54 1490.57 L1658.14 1474.71 L1665.56 1459.01 L1672.99 1443.32 L1680.41 1427.96 L1687.84 1412.61 L1695.43 1397.42 L1702.86 1382.23 L1710.28 1367.38 L1717.71 1352.70 L1725.30 1338.19 L1732.73 1323.84 L1740.15 1309.67 L1747.58 1295.83 L1755.00 1281.99 L1762.59 1268.49 L1770.02 1255.33 L1777.44 1242.34 L1784.87 1229.51 L1792.29 1217.03 L1799.89 1204.88 L1807.31 1192.89 L1814.74 1181.25 L1822.16 1169.78 L1829.76 1158.64 L1837.18 1148.01 L1844.61 1137.54 L1852.03 1127.25 L1859.46 1117.46 L1867.05 1108.01 L1874.48 1098.90 L1881.90 1089.96 L1889.33 1081.52 L1896.92 1073.42 L1904.34 1065.66 L1911.77 1058.40 L1919.19 1051.31 L1926.62 1044.73 L1934.21 1038.49 L1941.64 1032.58 L1949.06 1027.18 L1956.49 1022.12 L1963.91 1017.39 L1971.51 1013.18 L1978.93 1009.29 L1986.36 1005.75 L1993.78 1002.71 L2001.38 1000.18 L2008.80 997.99 L2016.23 996.13 L2023.65 994.78 L2031.08 993.77 L2038.67 993.09 L2046.09 993.09 L2053.52 993.26 L2060.94 993.94 L2068.54 995.12 L2075.96 996.64 L2083.39 998.66 L2090.81 1001.03 L2098.24 1003.72 L2105.83 1006.93 L2113.26 1010.47 L2120.68 1014.53 L2128.11 1018.91 L2135.53 1023.64 L2143.13 1028.87 L2150.55 1034.44 L2157.98 1040.51 L2165.40 1046.76 L2172.99 1053.51 L2180.42 1060.76 L2187.84 1068.19 L2195.27 1076.12 L2202.69 1084.22 L2210.29 1092.82 L2217.71 1101.77 L2225.14 1111.05 L2232.56 1120.67 L2240.16 1130.63 L2247.58 1140.75 L2255.01 1151.38 L2262.43 1162.18 L2269.86 1173.49 L2277.45 1184.96 L2284.88 1196.78 L2292.30 1208.76 L2299.73 1221.08 L2307.15 1233.56 L2314.74 1246.56 L2322.17 1259.55 L2329.59 1272.88 L2337.02 1286.38 L2344.61 1300.22 L2352.04 1314.23 L2359.46 1328.40 L2366.89 1342.91 L2374.31 1357.43 L2381.91 1372.11 L2389.33 1387.13 L2396.76 1402.14 L2404.18 1417.50 L2411.61 1432.86 L2419.20 1448.38 L2426.63 1464.08 L2434.05 1479.77 L2441.48 1495.80 L2449.07 1511.66 L2456.49 1527.69 L2463.92 1543.89 L2471.34 1560.09 L2478.77 1576.46 L2486.36 1592.83 L2493.79 1609.20 L2501.21 1625.74 L2508.64 1642.11 L2516.23 1658.64 L2523.66 1675.18 L2531.08 1691.72 L2538.51 1708.26 L2545.93 1724.63 L2553.53 1741.16 L2560.95 1757.70 L2568.38 1774.07 L2575.80 1790.44 L2583.23 1806.81 L2590.82 1823.18 L2598.24 1839.38 L2605.67 1855.58 L2613.09 1871.78 L2620.69 1887.81 L2628.11 1903.67 L2635.54 1919.53 L2642.96 1935.39 L2650.39 1951.09 L2657.98 1966.61 L2665.41 1981.97 L2672.83 1997.33 L2680.26 2012.51 L2687.85 2027.70 L2695.28 2042.55 L2702.70 2057.40 L2710.13 2072.08 L2717.55 2086.59 L2725.14 2100.94 L2732.57 2115.28 L2739.99 2129.29 L2747.42 2143.29 L2754.84 2156.96 L2762.44 2170.63 L2769.86 2184.13 L2777.29 2197.29 L2784.71 2210.46 L2792.31 2223.28 L2799.73 2236.11 L2807.16 2248.59 L2814.58 2261.08 L2822.01 2273.23 L2829.60 2285.21 L2837.03 2297.19 L2844.45 2308.84 L2851.88 2320.31 L2859.47 2331.62 L2866.89 2342.76 L2874.32 2353.56 L2881.74 2364.36 L2889.17 2374.82 L2896.76 2385.28 L2904.19 2395.41 L2911.61 2405.36 L2919.04 2415.15 L2926.46 2424.77 L2934.06 2434.22 L2941.48 2443.50 L2948.91 2452.61 L2956.33 2461.56 L2963.93 2470.16 L2971.35 2478.77 L2978.78 2487.04 L2986.20 2495.31 L2993.63 2503.24 L3001.22 2511.00 L3008.64 2518.59 L3016.07 2526.19 L3023.49 2533.44 L3031.09 2540.53 L3038.51 2547.62 L3045.94 2554.37 L3053.36 2560.95 L3060.79 2567.53 L3068.38 2573.78 L3075.81 2580.02 L3083.23 2585.93" stroke-linejoin="round" style="fill:none;stroke:#000000;stroke-width:9.72"/>
	<rect x="941.96" y="2461.56" width="471.99" height="305.10" style="fill:#198DFF;fill-opacity:0.50"/>
	<rect x="944.39" y="2463.99" width="467.13" height="300.24" style="fill:none;stroke:#5FAAFF;stroke-width:4.86"/>
	<rect x="1413.96" y="2003.91" width="471.99" height="762.75" style="fill:#198DFF;fill-opacity:0.50"/>
	<rect x="1416.39" y="2006.34" width="467.13" height="757.89" style="fill:none;stroke:#5FAAFF;stroke-width:4.86"/>
	<rect x="1885.95" y="1698.81" width="472.16" height="1067.85" style="fill:#198DFF;fill-opacity:0.50"/>
	<rect x="1888.38" y="1701.24" width="467.30" height="1062.99" style="fill:none;stroke:#5FAAFF;stroke-width:4.86"/>
	<rect x="2358.11" y="783.68" width="471.99" height="1982.98" style="fill:#198DFF;fill-opacity:0.50"/>
	<rect x="2360.54" y="786.11" width="467.13" height="1978.12" style="fill:none;stroke:#5FAAFF;stroke-width:4.86"/>
	<rect x="2830.11" y="2309.01" width="471.99" height="457.65" style="fill:#198DFF;fill-opacity:0.50"/>
	<rect x="2832.54" y="2311.44" width="467.13" height="452.79" style="fill:none;stroke:#5FAAFF;stroke-width:4.86"/>
	<line x1="557.89" y1="2766.66" x2="557.89" y2="113.40" style="stroke:#000000;stroke-width:6.48"/>
	<line x1="557.89" y1="2766.66" x2="513.00" y2="2766.66" style="stroke:#000000;stroke-width:6.48"/>
	<text x="490.39" y="2806.09" style="font-family:'Helvetica';font-size:112.56px;fill:#000000" text-anchor="end">0</text>
	<line x1="557.89" y1="2133.51" x2="513.00" y2="2133.51" style="stroke:#000000;stroke-width:6.48"/>
	<text x="490.39" y="2172.94" style="font-family:'Helvetica';font-size:112.56px;fill:#000000" text-anchor="end">.01</text>
	<line x1="557.89" y1="1500.36" x2="513.00" y2="1500.36" style="stroke:#000000;stroke-width:6.48"/>
	<text x="490.39" y="1539.79" style="font-family:'Helvetica';font-size:112.56px;fill:#000000" text-anchor="end">.02</text>
	<line x1="557.89" y1="867.21" x2="513.00" y2="867.21" style="stroke:#000000;stroke-width:6.48"/>
	<text x="490.39" y="906.64" style="font-family:'Helvetica';font-size:112.56px;fill:#000000" text-anchor="end">.03</text>
	<line x1="557.89" y1="234.06" x2="513.00" y2="234.06" style="stroke:#000000;stroke-width:6.48"/>
	<text x="490.39" y="273.49" style="font-family:'Helvetica';font-size:112.56px;fill:#000000" text-anchor="end">.04</text>
	<text x="214.55" y="1439.94" style="font-family:'Helvetica';font-size:112.56px;fill:#000000" transform="rotate(-90 214.55,1439.94)" text-anchor="middle">Density</text>
	<line x1="557.89" y1="2766.66" x2="3373.48" y2="2766.66" style="stroke:#000000;stroke-width:6.48"/>
	<line x1="903.32" y1="2766.66" x2="903.32" y2="2811.54" style="stroke:#000000;stroke-width:6.48"/>
	<text x="903.32" y="2912.86" style="font-family:'Helvetica';font-size:112.56px;fill:#000000" text-anchor="middle">20</text>
	<line x1="1585.58" y1="2766.66" x2="1585.58" y2="2811.54" style="stroke:#000000;stroke-width:6.48"/>
	<text x="1585.58" y="2912.86" style="font-family:'Helvetica';font-size:112.56px;fill:#000000" text-anchor="middle">40</text>
	<line x1="2268.00" y1="2766.66" x2="2268.00" y2="2811.54" style="stroke:#000000;stroke-width:6.48"/>
	<text x="2268.00" y="2912.86" style="font-family:'Helvetica';font-size:112.56px;fill:#000000" text-anchor="middle">60</text>
	<line x1="2950.43" y1="2766.66" x2="2950.43" y2="2811.54" style="stroke:#000000;stroke-width:6.48"/>
	<text x="2950.43" y="2912.86" style="font-family:'Helvetica';font-size:112.56px;fill:#000000" text-anchor="middle">80</text>
	<text x="1965.60" y="3070.31" style="font-family:'Helvetica';font-size:112.56px;fill:#000000" text-anchor="middle">age</text>
	<rect x="3412.29" y="1177.71" width="1835.49" height="524.64" style="fill:#FFFFFF"/>
	<rect x="3415.53" y="1180.95" width="1829.01" height="518.16" style="fill:none;stroke:#FFFFFF;stroke-width:6.48"/>
	<rect x="3460.89" y="1226.31" width="259.20" height="112.39" style="fill:#FF8C19;fill-opacity:0.40"/>
	<rect x="3463.32" y="1228.74" width="254.34" height="107.53" style="fill:none;stroke:#5FAAFF;stroke-width:4.86"/>
	<line x1="3460.89" y1="1439.94" x2="3720.09" y2="1439.94" style="stroke:#000000;stroke-width:9.72"/>
	<rect x="3460.89" y="1541.19" width="259.20" height="112.56" style="fill:#198DFF;fill-opacity:0.50"/>
	<rect x="3463.32" y="1543.62" width="254.34" height="107.70" style="fill:none;stroke:#5FAAFF;stroke-width:4.86"/>
	<text x="3787.59" y="1321.94" style="font-family:'Helvetica';font-size:112.56px;fill:#000000">Sampled from Normal</text>
	<text x="3787.59" y="1479.38" style="font-family:'Helvetica';font-size:112.56px;fill:#000000">Theoretical Normal</text>
	<text x="3787.59" y="1636.99" style="font-family:'Helvetica';font-size:112.56px;fill:#000000">Sampled from t-distribution</text>
</svg>
